<svg xmlns="http://www.w3.org/2000/svg" width="43" height="57" viewBox="0 0 43 57" fill="none"><g clip-path="url(#clip0_807_2038)"><path d="M32.8131 7.16706C32.8131 8.37919 32.382 10.0644 30.6578 10.0644C28.5768 10.0644 28.5768 7.74356 28.5768 7.25575C28.5768 6.76794 28.5768 4.28454 30.7172 4.28454C32.6644 4.28454 32.8131 6.42795 32.8131 7.16706ZM28.5917 0.677704H27.1945V9.62089L27.1647 10.9513H28.5174L28.5471 9.82784C28.7307 10.1297 28.9795 10.3872 29.2754 10.5817C29.7702 10.9016 30.3502 11.0664 30.9402 11.0548C31.4488 11.0662 31.9528 10.9568 32.4103 10.7357C32.8679 10.5146 33.2658 10.1882 33.5711 9.7835C33.9427 9.29569 34.2846 8.51223 34.2846 7.06359C34.2846 5.43755 33.7792 4.69844 33.4076 4.26976C32.7239 3.50109 31.7874 3.32371 31.0294 3.32371C29.3349 3.32371 28.7849 4.25498 28.5917 4.59497V0.677704Z" fill="#717171"></path><path d="M36.7074 7.46273C36.7074 6.79754 36.7074 4.43239 38.937 4.43239C40.5869 4.43239 40.9883 5.82191 40.9883 7.16709C40.9883 7.69925 40.9139 8.76356 40.3788 9.48788C39.9032 10.1383 39.16 10.2122 38.8033 10.2122C36.8412 10.227 36.7074 8.37922 36.7074 7.46273ZM35.3548 13.8338H36.7372V10.1383C37.1385 10.7887 37.9411 11.247 39.0262 11.247C40.8099 11.247 42.4301 10.0348 42.4301 7.25578C42.4301 4.47674 40.8991 3.39764 39.2938 3.39764C38.6843 3.39764 37.4506 3.57503 36.7372 4.74282L36.7074 3.5159H35.2953C35.3251 4.22544 35.3399 4.40283 35.3399 4.72804V13.8338H35.3548Z" fill="#717171"></path><path fill-rule="evenodd" clip-rule="evenodd" d="M24.2514 18.9632C23.4715 17.1616 22.5104 15.443 21.3826 13.8338C20.2617 15.4472 19.3009 17.1651 18.5139 18.9632C19.6277 20.1365 20.5912 21.4423 21.3826 22.8509C22.1666 21.4376 23.1308 20.1309 24.2514 18.9632Z" fill="#717171"></path><path fill-rule="evenodd" clip-rule="evenodd" d="M18.5287 51.2326C19.3086 53.0342 20.2698 54.7528 21.3975 56.362C21.9029 55.5933 23.2109 53.7012 24.2663 51.2326C23.1571 50.0555 22.1939 48.7503 21.3975 47.3449C20.6011 48.7503 19.6379 50.0555 18.5287 51.2326Z" fill="#717171"></path><path fill-rule="evenodd" clip-rule="evenodd" d="M18.5288 18.9632C17.1682 17.54 15.6751 16.2482 14.0695 15.1051C13.5699 17.0014 13.2611 18.9425 13.148 20.8997C14.5967 21.6226 15.9497 22.5213 17.1761 23.5752C17.4296 21.9873 17.884 20.4377 18.5288 18.9632Z" fill="#717171"></path><path fill-rule="evenodd" clip-rule="evenodd" d="M24.2514 51.2326C25.6085 52.6594 27.1019 53.9515 28.7106 55.0907C29.2089 53.1941 29.5176 51.2531 29.6322 49.2961C28.1866 48.5678 26.8343 47.6695 25.604 46.6206C25.3416 48.2065 24.8874 49.755 24.2514 51.2326Z" fill="#717171"></path><path fill-rule="evenodd" clip-rule="evenodd" d="M13.148 20.8997C11.3848 20.0187 9.53743 19.3155 7.63342 18.8006C7.81928 20.7544 8.19765 22.6854 8.76309 24.5656C10.3702 24.7495 11.9481 25.1319 13.4601 25.7039C13.1608 24.1209 13.056 22.5077 13.148 20.8997Z" fill="#717171"></path><path fill-rule="evenodd" clip-rule="evenodd" d="M29.6173 49.2961C31.3804 50.1771 33.2278 50.8803 35.1318 51.3952C34.946 49.4414 34.5676 47.5104 34.0022 45.6302C32.3945 45.4409 30.8167 45.0536 29.3051 44.4772C29.6188 46.0633 29.7237 47.6832 29.6173 49.2961Z" fill="#717171"></path><path fill-rule="evenodd" clip-rule="evenodd" d="M10.7103 28.9707C9.88289 27.5869 9.22896 26.1075 8.76309 24.5656C6.80435 24.3374 4.82769 24.3027 2.86208 24.4621C3.71187 26.2284 4.72711 27.9112 5.89433 29.4881C7.47143 29.1152 9.08948 28.9413 10.7103 28.9707Z" fill="#717171"></path><path fill-rule="evenodd" clip-rule="evenodd" d="M32.055 41.2251C32.8885 42.6058 33.5428 44.0859 34.0022 45.6302C35.9609 45.8584 37.9376 45.8931 39.9032 45.7336C39.0502 43.9613 38.0299 42.2735 36.8561 40.6929C35.285 41.0726 33.6716 41.2514 32.055 41.2251Z" fill="#717171"></path><path fill-rule="evenodd" clip-rule="evenodd" d="M5.89433 29.4881C3.97969 29.9464 2.11327 30.5849 0.320328 31.395C1.72763 32.7716 3.26582 34.0092 4.91331 35.0905C6.26485 34.2032 7.72301 33.4881 9.2536 32.9619C7.9965 31.9435 6.86848 30.7771 5.89433 29.4881Z" fill="#717171"></path><path fill-rule="evenodd" clip-rule="evenodd" d="M37.8668 35.0905C36.5153 35.9778 35.0571 36.6929 33.5265 37.2191C34.7828 38.2337 35.9063 39.4007 36.8709 40.6929C38.7871 40.2399 40.654 39.6012 42.4449 38.786C41.0472 37.4048 39.5135 36.1667 37.8668 35.0905Z" fill="#717171"></path><path fill-rule="evenodd" clip-rule="evenodd" d="M9.2536 37.2191C7.72301 36.6929 6.26485 35.9778 4.91331 35.0905C3.26582 36.1718 1.72763 37.4095 0.320328 38.786C2.11054 39.6029 3.97764 40.2417 5.89433 40.6929C6.87239 39.4073 7.99999 38.2413 9.2536 37.2191Z" fill="#717171"></path><path fill-rule="evenodd" clip-rule="evenodd" d="M33.5265 32.9619C35.0558 33.4912 36.5136 34.2061 37.8668 35.0905C39.5143 34.0092 41.0525 32.7716 42.4598 31.395C40.6696 30.5781 38.8025 29.9393 36.8858 29.4881C35.9116 30.7771 34.7836 31.9435 33.5265 32.9619Z" fill="#717171"></path><path fill-rule="evenodd" clip-rule="evenodd" d="M5.89433 40.7077C4.7147 42.2816 3.69874 43.9705 2.86208 45.7484C4.82793 45.9 6.80383 45.8654 8.76309 45.6449C9.22896 44.1031 9.88289 42.6237 10.7103 41.2399C9.08959 41.2498 7.4733 41.0712 5.89433 40.7077Z" fill="#717171"></path><path fill-rule="evenodd" clip-rule="evenodd" d="M36.8709 29.4881C38.048 27.9096 39.0684 26.2215 39.918 24.4474C37.9522 24.2957 35.9763 24.3304 34.017 24.5508C33.5512 26.0927 32.8972 27.5721 32.0699 28.9559C33.686 28.9386 35.2983 29.1173 36.8709 29.4881Z" fill="#717171"></path><path fill-rule="evenodd" clip-rule="evenodd" d="M13.4601 44.4772C11.9464 45.0467 10.3695 45.4338 8.76309 45.6302C8.19765 47.5104 7.81928 49.4414 7.63342 51.3952C9.53743 50.8803 11.3848 50.1771 13.148 49.2961C13.0564 47.6832 13.1612 46.0651 13.4601 44.4772Z" fill="#717171"></path><path fill-rule="evenodd" clip-rule="evenodd" d="M29.3051 25.7039C30.8172 25.1319 32.395 24.7495 34.0022 24.5656C34.5676 22.6854 34.946 20.7544 35.1318 18.8006C33.2278 19.3155 31.3804 20.0187 29.6173 20.8997C29.7237 22.5077 29.6188 24.1228 29.3051 25.7039Z" fill="#717171"></path><path fill-rule="evenodd" clip-rule="evenodd" d="M13.148 49.2961C13.2611 51.2533 13.5699 53.1944 14.0695 55.0907C15.6789 53.9523 17.1724 52.6601 18.5288 51.2326C17.8841 49.753 17.4296 48.1985 17.1761 46.6058C15.9499 47.6641 14.597 48.5677 13.148 49.2961Z" fill="#717171"></path><path fill-rule="evenodd" clip-rule="evenodd" d="M29.6173 20.8997C29.5041 18.9425 29.1954 17.0014 28.6957 15.1051C27.0864 16.2435 25.5929 17.5357 24.2365 18.9632C24.8725 20.4408 25.3267 21.9893 25.5891 23.5752C26.8218 22.5296 28.1738 21.6316 29.6173 20.8997Z" fill="#717171"></path><path fill-rule="evenodd" clip-rule="evenodd" d="M19.9111 26.8273C20.1855 25.4277 20.6823 24.0804 21.3826 22.8361C20.5912 21.4275 19.6277 20.1217 18.5139 18.9484C17.8712 20.4236 17.4167 21.973 17.1613 23.5605C18.2445 24.4993 19.1724 25.6017 19.9111 26.8273Z" fill="#B6B6B6"></path><path fill-rule="evenodd" clip-rule="evenodd" d="M22.8542 43.3685C22.5772 44.7674 22.0806 46.1143 21.3826 47.3597C22.169 48.7715 23.133 50.0779 24.2514 51.2474C24.8893 49.7654 25.3436 48.2117 25.604 46.6206C24.5177 45.6905 23.5892 44.5924 22.8542 43.3685Z" fill="#B6B6B6"></path><path fill-rule="evenodd" clip-rule="evenodd" d="M13.4601 25.7039C14.7977 26.211 16.0467 26.9243 17.1613 27.8177C16.9383 26.4122 16.9383 24.9807 17.1613 23.5752C15.9335 22.523 14.5807 21.6245 13.1331 20.8997C13.0538 22.5083 13.1635 24.1206 13.4601 25.7039Z" fill="#B6B6B6"></path><path fill-rule="evenodd" clip-rule="evenodd" d="M29.3051 44.4772C27.9675 43.97 26.7185 43.2567 25.604 42.3633C25.8296 43.769 25.8246 45.2017 25.5891 46.6058C26.8169 47.658 28.1697 48.5565 29.6173 49.2813C29.7232 47.6733 29.6183 46.0583 29.3051 44.4772Z" fill="#B6B6B6"></path><path fill-rule="evenodd" clip-rule="evenodd" d="M14.9168 29.695C14.2229 28.4492 13.7313 27.1022 13.4601 25.7039C11.9481 25.1319 10.3702 24.7495 8.76309 24.5656C9.22897 26.1075 9.88289 27.5869 10.7103 28.9707C12.1424 28.9869 13.5626 29.2314 14.9168 29.695Z" fill="#B6B6B6"></path><path fill-rule="evenodd" clip-rule="evenodd" d="M27.8485 40.5008C28.5423 41.7466 29.034 43.0936 29.3052 44.492C30.8189 45.0615 32.3958 45.4486 34.0022 45.645C33.5363 44.1031 32.8824 42.6237 32.055 41.2399C30.6238 41.2015 29.2062 40.9524 27.8485 40.5008Z" fill="#B6B6B6"></path><path fill-rule="evenodd" clip-rule="evenodd" d="M9.2536 32.9619C10.6078 32.4965 12.0275 32.2471 13.4601 32.2228C12.3778 31.2928 11.4542 30.1945 10.7251 28.9707C9.10468 28.9487 7.48754 29.1225 5.90919 29.4881C6.87382 30.7803 7.99736 31.9473 9.2536 32.9619Z" fill="#B6B6B6"></path><path fill-rule="evenodd" clip-rule="evenodd" d="M33.5265 37.2191C32.1723 37.6845 30.7526 37.934 29.32 37.9583C30.4023 38.8883 31.3259 39.9865 32.055 41.2103C33.6764 41.2358 35.2946 41.057 36.8709 40.6782C35.898 39.3973 34.7753 38.2361 33.5265 37.2191Z" fill="#B6B6B6"></path><path fill-rule="evenodd" clip-rule="evenodd" d="M12.9399 35.0905C11.6041 34.5825 10.3594 33.8637 9.2536 32.9619C7.72301 33.4881 6.26486 34.2032 4.91331 35.0905C6.26486 35.9778 7.72301 36.6929 9.2536 37.2191C10.3631 36.3226 11.6069 35.6043 12.9399 35.0905Z" fill="#B6B6B6"></path><path fill-rule="evenodd" clip-rule="evenodd" d="M29.8254 35.0905C31.1641 35.6018 32.4132 36.3202 33.5265 37.2191C35.0558 36.6899 36.5136 35.9749 37.8668 35.0905C36.5153 34.2032 35.0571 33.4881 33.5265 32.9619C32.419 33.8691 31.1685 34.5884 29.8254 35.0905Z" fill="#B6B6B6"></path><path fill-rule="evenodd" clip-rule="evenodd" d="M10.7103 41.2251C11.444 40.0046 12.367 38.907 13.4452 37.973C12.0127 37.9487 10.593 37.6993 9.23873 37.2339C7.9825 38.2485 6.85895 39.4155 5.89433 40.7077C7.47268 41.0734 9.08982 41.2471 10.7103 41.2251Z" fill="#B6B6B6"></path><path fill-rule="evenodd" clip-rule="evenodd" d="M32.055 28.9707C31.3213 30.1912 30.3982 31.2888 29.32 32.2228C30.7526 32.247 32.1723 32.4965 33.5265 32.9619C34.7828 31.9473 35.9063 30.7803 36.8709 29.4881C35.294 29.1144 33.6758 28.9405 32.055 28.9707Z" fill="#B6B6B6"></path><path fill-rule="evenodd" clip-rule="evenodd" d="M14.9168 40.5008C13.5626 40.9644 12.1424 41.209 10.7103 41.2251C9.88289 42.609 9.22897 44.0883 8.76309 45.6302C10.3708 45.4409 11.9485 45.0536 13.4601 44.4772C13.7339 43.0842 14.2254 41.7425 14.9168 40.5008Z" fill="#B6B6B6"></path><path fill-rule="evenodd" clip-rule="evenodd" d="M27.8485 29.695C29.2027 29.2314 30.6229 28.9869 32.055 28.9707C32.8885 27.59 33.5428 26.1099 34.0022 24.5656C32.395 24.7495 30.8172 25.1319 29.3052 25.7039C29.0407 27.1041 28.5487 28.4521 27.8485 29.695Z" fill="#B6B6B6"></path><path fill-rule="evenodd" clip-rule="evenodd" d="M19.9111 43.3685C19.1761 44.5924 18.2476 45.6905 17.1613 46.6206C17.4168 48.2128 17.8712 49.7671 18.5139 51.2474C19.6277 50.0741 20.5912 48.7683 21.3826 47.3597C20.691 46.1114 20.1948 44.7655 19.9111 43.3685Z" fill="#B6B6B6"></path><path fill-rule="evenodd" clip-rule="evenodd" d="M17.1613 42.3781C16.0488 43.2745 14.7993 43.9882 13.4601 44.492C13.1539 46.074 13.049 47.6881 13.148 49.2961C14.5935 48.5678 15.9459 47.6695 17.1761 46.6206C16.9407 45.2165 16.9357 43.7838 17.1613 42.3781Z" fill="#B6B6B6"></path><path fill-rule="evenodd" clip-rule="evenodd" d="M22.8542 26.8273C23.5938 25.6067 24.5217 24.5093 25.604 23.5753C25.3506 21.9873 24.8961 20.4377 24.2514 18.9632C23.1422 20.1403 22.1791 21.4456 21.3826 22.8509C22.0853 24.0889 22.5822 25.4317 22.8542 26.8273Z" fill="#B6B6B6"></path><path fill-rule="evenodd" clip-rule="evenodd" d="M25.604 27.8177C26.7144 26.9182 27.9644 26.2043 29.3051 25.7039C29.6114 24.1218 29.7162 22.5077 29.6173 20.8997C28.1718 21.628 26.8194 22.5263 25.5891 23.5752C25.8246 24.9793 25.8296 26.412 25.604 27.8177Z" fill="#B6B6B6"></path><path fill-rule="evenodd" clip-rule="evenodd" d="M19.9259 31.1141C19.2256 29.8533 18.2868 28.739 17.1612 27.8325C17.3998 29.2511 17.8986 30.614 18.6328 31.8532C17.5394 30.9145 16.279 30.1875 14.9168 29.7098C15.6262 30.9644 16.5636 32.0772 17.6815 32.9914C16.3299 32.4764 14.8925 32.2206 13.4452 32.2375C14.5427 33.1748 15.8086 33.8971 17.1761 34.3662C15.7297 34.3436 14.2922 34.5944 12.9399 35.1053C14.2948 35.6065 15.7305 35.857 17.1761 35.8444C15.8086 36.3135 14.5427 37.0357 13.4452 37.973C14.8925 37.9899 16.3299 37.7341 17.6815 37.2191C16.5603 38.13 15.6222 39.2434 14.9168 40.5008C16.2779 40.0205 17.5378 39.2938 18.6328 38.3573C17.8923 39.5936 17.393 40.9577 17.1612 42.3781C18.276 41.4607 19.213 40.3486 19.9259 39.0965C19.6582 40.513 19.6582 41.9667 19.9259 43.3833C20.6619 42.1449 21.1608 40.7816 21.3975 39.3625C21.6317 40.7823 22.1308 42.146 22.869 43.3833C23.1368 41.9667 23.1368 40.513 22.869 39.0965C23.578 40.3513 24.5155 41.4641 25.6337 42.3781C25.3965 40.9569 24.8922 39.5929 24.1473 38.3573C25.246 39.2965 26.5113 40.0234 27.8782 40.5008C27.1727 39.2434 26.2347 38.13 25.1135 37.2191C26.4651 37.7341 27.9025 37.9899 29.3497 37.973C28.2494 37.0362 26.9846 36.3096 25.6189 35.8296C27.0653 35.8521 28.5028 35.6013 29.8551 35.0905C28.5005 34.588 27.0646 34.3375 25.6189 34.3514C26.9864 33.8823 28.2523 33.1601 29.3497 32.2228C27.9025 32.2058 26.4651 32.4616 25.1135 32.9766C26.239 32.0661 27.182 30.9528 27.8931 29.695C26.5262 30.1724 25.2609 30.8993 24.1622 31.8384C24.9071 30.6029 25.4113 29.2388 25.6486 27.8177C24.5338 28.735 23.5969 29.8472 22.8839 31.0993C23.1517 29.6828 23.1517 28.229 22.8839 26.8125C22.1456 28.0498 21.6466 29.4135 21.4124 30.8332C21.1781 29.4135 20.6791 28.0498 19.9408 26.8125C19.6604 28.2323 19.6554 29.6924 19.9259 31.1141Z" fill="white"></path><path fill-rule="evenodd" clip-rule="evenodd" d="M19.926 31.1141C19.6582 29.6976 19.6582 28.2438 19.926 26.8273C19.1909 25.6034 18.2624 24.5053 17.1761 23.5752C16.9457 24.9801 16.9457 26.4128 17.1761 27.8177C18.2859 28.7418 19.2176 29.8588 19.926 31.1141Z" fill="#E6E6E6"></path><path fill-rule="evenodd" clip-rule="evenodd" d="M22.8393 39.0817C23.1071 40.4982 23.1071 41.952 22.8393 43.3685C23.5789 44.5891 24.5068 45.6865 25.5891 46.6206C25.8172 45.2159 25.8222 43.7843 25.604 42.3781C24.4855 41.4586 23.5481 40.3409 22.8393 39.0817Z" fill="#E6E6E6"></path><path fill-rule="evenodd" clip-rule="evenodd" d="M17.1613 27.8177C16.0488 26.9213 14.7993 26.2076 13.4601 25.7039C13.7245 27.1041 14.2165 28.4521 14.9168 29.695C16.2806 30.1694 17.5416 30.8967 18.6328 31.8384C17.8964 30.6003 17.3974 29.2369 17.1613 27.8177Z" fill="#E6E6E6"></path><path fill-rule="evenodd" clip-rule="evenodd" d="M25.604 42.3781C26.7144 43.2776 27.9644 43.9915 29.3052 44.4919C29.0407 43.0917 28.5487 41.7437 27.8485 40.5008C26.4843 40.0175 25.22 39.2912 24.1176 38.3574C24.8712 39.5888 25.3761 40.9545 25.604 42.3781Z" fill="#E6E6E6"></path><path fill-rule="evenodd" clip-rule="evenodd" d="M17.6964 32.9767C16.5752 32.0658 15.6371 30.9523 14.9317 29.695C13.5775 29.2314 12.1572 28.9869 10.7251 28.9707C11.4589 30.1912 12.3819 31.2888 13.4601 32.2228C14.9073 32.2071 16.3445 32.4629 17.6964 32.9767Z" fill="#E6E6E6"></path><path fill-rule="evenodd" clip-rule="evenodd" d="M25.0838 37.2191C26.205 38.1301 27.143 39.2435 27.8485 40.5008C29.2027 40.9644 30.6229 41.2089 32.055 41.2251C31.3213 40.0046 30.3982 38.907 29.32 37.973C27.8727 37.99 26.4353 37.7342 25.0838 37.2191Z" fill="#E6E6E6"></path><path fill-rule="evenodd" clip-rule="evenodd" d="M17.1761 34.3662C15.8086 33.8971 14.5427 33.1749 13.4453 32.2376C12.0127 32.2619 10.593 32.5113 9.23874 32.9767C10.3466 33.8755 11.5909 34.594 12.925 35.1053C14.2816 34.5913 15.7246 34.3404 17.1761 34.3662Z" fill="#E6E6E6"></path><path fill-rule="evenodd" clip-rule="evenodd" d="M25.5891 35.8296C26.9548 36.3096 28.2197 37.0362 29.32 37.973C30.7526 37.9487 32.1723 37.6993 33.5265 37.2339C32.4153 36.3319 31.1657 35.6132 29.8254 35.1053C28.4721 35.6111 27.0346 35.8569 25.5891 35.8296Z" fill="#E6E6E6"></path><path fill-rule="evenodd" clip-rule="evenodd" d="M12.9399 35.0905C11.6041 35.5986 10.3594 36.3173 9.2536 37.2191C10.6078 37.6845 12.0275 37.934 13.4601 37.9582C14.5575 37.0209 15.8234 36.2987 17.191 35.8296C15.7393 35.8581 14.2958 35.6071 12.9399 35.0905Z" fill="#E6E6E6"></path><path fill-rule="evenodd" clip-rule="evenodd" d="M29.8254 35.0905C31.1641 34.5792 32.4132 33.8608 33.5265 32.9619C32.1723 32.4965 30.7526 32.2471 29.32 32.2228C28.2226 33.1601 26.9567 33.8823 25.5891 34.3514C27.0349 34.3363 28.4711 34.5869 29.8254 35.0905Z" fill="#E6E6E6"></path><path fill-rule="evenodd" clip-rule="evenodd" d="M17.6964 37.2191C16.3448 37.7342 14.9074 37.99 13.4601 37.973C12.3778 38.903 11.4542 40.0013 10.7251 41.2251C12.1566 41.2017 13.5757 40.9574 14.9317 40.5008C15.6276 39.237 16.5671 38.1219 17.6964 37.2191Z" fill="#E6E6E6"></path><path fill-rule="evenodd" clip-rule="evenodd" d="M25.0838 32.9767C26.4353 32.4617 27.8727 32.2058 29.32 32.2228C30.4023 31.2928 31.3259 30.1945 32.055 28.9707C30.6236 28.9941 29.2045 29.2384 27.8485 29.695C27.143 30.9523 26.205 32.0658 25.0838 32.9767Z" fill="#E6E6E6"></path><path fill-rule="evenodd" clip-rule="evenodd" d="M19.9111 43.3685C20.188 44.7674 20.6846 46.1143 21.3826 47.3597C22.0766 46.1125 22.573 44.7663 22.8542 43.3685C22.1183 42.1301 21.6193 40.7669 21.3826 39.3478C21.1527 40.7686 20.6533 42.1331 19.9111 43.3685Z" fill="#E6E6E6"></path><path fill-rule="evenodd" clip-rule="evenodd" d="M19.926 39.0817C19.2217 40.3398 18.2835 41.4534 17.1613 42.3633C16.9383 43.7688 16.9383 45.2003 17.1613 46.6058C18.2436 45.6717 19.1715 44.5743 19.9111 43.3537C19.656 41.9405 19.661 40.493 19.926 39.0817Z" fill="#E6E6E6"></path><path fill-rule="evenodd" clip-rule="evenodd" d="M14.9168 40.5008C14.2229 41.7466 13.7313 43.0936 13.4601 44.4919C14.7977 43.9848 16.0467 43.2715 17.1613 42.3781C17.3998 40.9595 17.8986 39.5966 18.6328 38.3574C17.5378 39.2938 16.2779 40.0205 14.9168 40.5008Z" fill="#E6E6E6"></path><path fill-rule="evenodd" clip-rule="evenodd" d="M22.8542 26.8273C22.5797 25.4277 22.083 24.0804 21.3826 22.8361C20.6863 24.0823 20.1898 25.4289 19.9111 26.8273C20.6493 28.0646 21.1484 29.4283 21.3826 30.848C21.6168 29.4283 22.1159 28.0646 22.8542 26.8273Z" fill="#E6E6E6"></path><path fill-rule="evenodd" clip-rule="evenodd" d="M22.8393 31.1141C23.5443 29.8565 24.4824 28.743 25.604 27.8325C25.8296 26.4268 25.8246 24.9941 25.5891 23.59C24.5068 24.524 23.5789 25.6215 22.8393 26.8421C23.122 28.2522 23.122 29.704 22.8393 31.1141Z" fill="#E6E6E6"></path><path fill-rule="evenodd" clip-rule="evenodd" d="M27.8485 29.695C28.5423 28.4492 29.034 27.1022 29.3052 25.7039C27.9676 26.211 26.7186 26.9243 25.604 27.8177C25.3668 29.2389 24.8625 30.6029 24.1176 31.8384C25.22 30.9046 26.4843 30.1783 27.8485 29.695Z" fill="#E6E6E6"></path></g><defs><clipPath id="clip0_807_2038"><rect width="42.1395" height="55.6843" fill="white" transform="translate(0.320343 0.677704)"></rect></clipPath></defs></svg>