<svg xmlns="http://www.w3.org/2000/svg" width="34" height="46" viewBox="0 0 34 46" fill="none"><mask id="mask0_807_2169" style="mask-type:luminance" maskUnits="userSpaceOnUse" x="0" y="0" width="34" height="46"><path d="M33.8621 0.570496H0V45.6447H33.8621V0.570496Z" fill="white"></path></mask><g mask="url(#mask0_807_2169)"><path d="M25.7352 34.4326C26.4124 34.4326 27.0144 35.0345 27.0144 35.7118C27.0144 36.389 26.4877 36.991 25.7352 36.991C25.0579 36.991 24.5312 36.389 24.5312 35.7118C24.5312 35.0345 25.0579 34.4326 25.7352 34.4326ZM25.7352 36.69C26.2619 36.69 26.7134 36.2385 26.7134 35.7118C26.7134 35.1098 26.2619 34.7336 25.7352 34.7336C25.2084 34.7336 24.7569 35.185 24.7569 35.7118C24.7569 36.3138 25.2084 36.69 25.7352 36.69ZM25.5847 36.389H25.3589V35.0345H25.8104C26.1114 35.0345 26.2619 35.185 26.2619 35.486C26.2619 35.7118 26.1114 35.8623 25.9609 35.8623L26.2619 36.389H25.9609L25.6599 35.8623H25.5847V36.389ZM25.7352 35.6365C25.8857 35.6365 25.9609 35.5613 25.9609 35.4108C25.9609 35.2603 25.8857 35.185 25.7352 35.185H25.5847V35.5613H25.7352V35.6365Z" fill="#717171"></path></g><mask id="mask1_807_2169" style="mask-type:luminance" maskUnits="userSpaceOnUse" x="0" y="0" width="34" height="46"><path d="M33.8621 0.570496H0V45.6447H33.8621V0.570496Z" fill="white"></path></mask><g mask="url(#mask1_807_2169)"><path d="M31.7551 24.8759C31.0778 24.8759 30.6264 25.1769 30.1749 25.5532L29.8739 26.0047L29.7986 25.9294L30.1749 25.3274V24.9512H27.7669V32.9276H29.9491V27.8859C29.9491 27.0582 30.4759 26.8324 30.8521 26.7572C31.2283 26.6819 31.6798 26.9077 31.6798 27.3592V32.9276H33.8621V27.4344C33.8621 25.7037 33.1096 24.8759 31.7551 24.8759Z" fill="#717171"></path></g><mask id="mask2_807_2169" style="mask-type:luminance" maskUnits="userSpaceOnUse" x="0" y="0" width="34" height="46"><path d="M33.8621 0.570496H0V45.6447H33.8621V0.570496Z" fill="white"></path></mask><g mask="url(#mask2_807_2169)"><path d="M7.44965 31.1216H9.70712V32.8523H5.26743V24.8759H7.44965V31.1216Z" fill="#717171"></path></g><mask id="mask3_807_2169" style="mask-type:luminance" maskUnits="userSpaceOnUse" x="0" y="0" width="34" height="46"><path d="M33.8621 0.570496H0V45.6447H33.8621V0.570496Z" fill="white"></path></mask><g mask="url(#mask3_807_2169)"><path d="M0 32.8523H4.43969V31.2721H2.18222V29.5414H4.43969V28.0364H2.18222V26.5314H4.43969V24.8759H0V32.8523Z" fill="#717171"></path></g><mask id="mask4_807_2169" style="mask-type:luminance" maskUnits="userSpaceOnUse" x="0" y="0" width="34" height="46"><path d="M33.8621 0.570496H0V45.6447H33.8621V0.570496Z" fill="white"></path></mask><g mask="url(#mask4_807_2169)"><path d="M10.4596 32.8523H14.9746V31.2721H12.6418V29.5414H14.9746V28.0364H12.6418V26.5314H14.9746V24.8759H10.4596V32.8523Z" fill="#717171"></path></g><mask id="mask5_807_2169" style="mask-type:luminance" maskUnits="userSpaceOnUse" x="0" y="0" width="34" height="46"><path d="M33.8621 0.570496H0V45.6447H33.8621V0.570496Z" fill="white"></path></mask><g mask="url(#mask5_807_2169)"><path d="M22.4995 32.8523H27.0144V31.2721H24.6817V29.5414H27.0144V28.0364H24.6817V26.5314H27.0144V24.8759H22.4995V32.8523Z" fill="#717171"></path></g><mask id="mask6_807_2169" style="mask-type:luminance" maskUnits="userSpaceOnUse" x="0" y="0" width="34" height="46"><path d="M33.8621 0.570496H0V45.6447H33.8621V0.570496Z" fill="white"></path></mask><g mask="url(#mask6_807_2169)"><path d="M19.64 24.8759L18.8123 29.9176L18.737 30.8206V30.8959H18.6618V30.8206L18.5865 29.9176L17.7588 24.8759H15.5766L17.3825 32.8523H20.0915L21.8975 24.8759H19.64Z" fill="#717171"></path></g><mask id="mask7_807_2169" style="mask-type:luminance" maskUnits="userSpaceOnUse" x="0" y="0" width="34" height="46"><path d="M33.8621 0.570496H0V45.6447H33.8621V0.570496Z" fill="white"></path></mask><g mask="url(#mask7_807_2169)"><path d="M28.3689 0.570496H0V11.8579H14.9746C18.3608 6.96666 22.951 3.05371 28.3689 0.570496Z" fill="#717171"></path></g><mask id="mask8_807_2169" style="mask-type:luminance" maskUnits="userSpaceOnUse" x="0" y="0" width="34" height="46"><path d="M33.8621 0.570496H0V45.6447H33.8621V0.570496Z" fill="white"></path></mask><g mask="url(#mask8_807_2169)"><path d="M11.2874 45.6447H22.5747V34.3573H11.2874V45.6447Z" fill="#717171"></path></g><mask id="mask9_807_2169" style="mask-type:luminance" maskUnits="userSpaceOnUse" x="0" y="0" width="34" height="46"><path d="M33.8621 0.570496H0V45.6447H33.8621V0.570496Z" fill="white"></path></mask><g mask="url(#mask9_807_2169)"><path d="M33.8621 11.8579V0.570496C23.1015 3.50521 14.6736 12.1588 12.1151 23.1452H23.6282C25.3589 18.1035 29.1214 14.0401 33.8621 11.8579Z" fill="#717171"></path></g></svg>