<?xml version="1.0" encoding="UTF-8"?><svg id="Layer_1" xmlns="http://www.w3.org/2000/svg" viewBox="0 0 272 50"><defs><style>.cls-1,.cls-2{fill:#fff;}.cls-2{isolation:isolate;}</style></defs><path class="cls-2" d="M14.18,1.43v9.48h16.41c4.92.01,8.9,3.99,8.91,8.91v28.75h9.5v-28.75c-.02-10.16-8.25-18.38-18.41-18.39H14.18Z"/><path class="cls-1" d="M57.6,1.43h-14.38c1.71,1.18,3.25,2.59,4.57,4.19,1.31,1.6,2.39,3.39,3.21,5.29h6.6c4.92.01,8.9,3.99,8.91,8.91v28.75h9.49v-28.75c-.03-10.15-8.25-18.37-18.4-18.39Z"/><path class="cls-1" d="M177.83,25.38c.5-.63,1.12-1.14,1.82-1.52.66-.34,1.39-.51,2.13-.5.4,0,.81.04,1.2.12.35.08.69.21,1,.39.3.19.58.42.81.69.29.32.55.68.77,1.05.5-.69,1.14-1.27,1.88-1.69.68-.38,1.44-.57,2.22-.56.62-.01,1.23.09,1.81.32.52.22.98.57,1.35,1,.39.45.68.98.85,1.55.2.67.3,1.36.29,2.06v4.81c0,.34.03.67.11,1,.06.26.17.5.34.7.16.19.36.35.59.44.28.12.58.2.89.22.1,0,.19.04.26.1.06.06.09.14.09.22,0,.08-.02.15-.08.2-.08.05-.17.08-.27.07h-4.7l-.19-.05c-.1,0-.2-.02-.29-.08-.07-.05-.11-.13-.11-.21,0-.06.02-.12.06-.16.06-.05.13-.09.2-.12.19-.07.37-.16.54-.25.12-.06.22-.14.31-.24.08-.09.13-.2.15-.32.03-.15.05-.31.05-.46v-5.37c0-.61-.07-1.21-.22-1.8-.13-.48-.34-.94-.64-1.34-.26-.35-.61-.64-1-.84-.43-.19-.9-.29-1.37-.28-.34,0-.68.05-1,.16-.34.11-.65.27-.94.47-.27.17-.51.39-.7.65-.14.2-.22.44-.23.68,0,.06,0,.11,0,.17v.21c.03.17.05.35.06.52,0,.17,0,.34,0,.51v5.39c0,.34.02.67.09,1,.04.23.14.44.29.62.15.17.34.29.55.36.29.1.59.16.89.18.13,0,.26.04.38.11.08.05.12.14.12.23,0,.08-.04.16-.11.2-.1.05-.21.07-.32.07h-.48l-.77-.07h-3.51s-.2,0-.2,0c-.1,0-.19-.02-.27-.07-.06-.05-.1-.12-.09-.2,0-.06.02-.11.06-.15.06-.05.13-.09.2-.11.22-.08.43-.17.64-.28.12-.07.23-.17.31-.28.06-.16.1-.33.11-.5v-6.47c0-.48-.06-.95-.21-1.4-.12-.4-.33-.76-.61-1.07-.27-.3-.62-.54-1-.68-.41-.15-.84-.23-1.28-.22-.4,0-.81.05-1.19.17-.34.11-.66.28-.94.5-.23.21-.41.47-.53.76-.14.31-.21.66-.2,1v6.41c0,.28.03.57.1.84.06.22.17.41.32.58.16.16.36.28.57.36.28.11.57.17.87.2.12,0,.24.05.35.11.07.06.11.14.11.23,0,.08-.03.16-.09.21-.08.05-.18.07-.27.06h-.72c-.16,0-.31,0-.47,0h-3.57s-.23,0-.23,0c-.1,0-.19-.02-.28-.06-.06-.05-.1-.13-.09-.21,0-.07.03-.14.08-.2.07-.06.16-.11.25-.14.2-.06.39-.14.57-.24.13-.07.24-.17.32-.3.08-.15.14-.31.15-.48.04-.27.05-.53.05-.8v-6.67c0-.3-.02-.61-.06-.91-.03-.2-.09-.39-.18-.57-.07-.13-.19-.24-.33-.3-.17-.07-.35-.11-.53-.1h-.85s-.09-.03-.12-.06c-.03-.01-.05-.03-.07-.06,0-.03,0-.06,0-.09,0-.07.04-.13.09-.17.08-.06.17-.1.27-.13.51-.13,1-.3,1.49-.49.47-.19.94-.41,1.38-.66.19-.11.35-.19.46-.24.07-.04.16-.07.24-.08.08,0,.13,0,.17.13.05.14.07.28.06.42v1.81-.02Z"/><path class="cls-1" d="M199.08,28.48v.33c0,.8.11,1.59.36,2.35.23.71.59,1.36,1.06,1.94.43.54.97.99,1.58,1.31.59.29,1.24.45,1.9.44.59-.01,1.16-.14,1.7-.37.66-.28,1.29-.65,1.85-1.1l.12-.07s.07,0,.1,0c.05-.03.11-.03.16,0,.04.05.07.11.06.18-.03.21-.12.4-.27.55-.23.27-.49.51-.78.72-.6.48-1.28.87-2,1.14-.68.25-1.4.38-2.12.38-.77,0-1.53-.15-2.24-.46-.71-.33-1.34-.8-1.85-1.39-.54-.61-.96-1.31-1.23-2.08-.29-.81-.43-1.66-.42-2.51,0-.83.14-1.66.43-2.44.29-.77.72-1.49,1.27-2.11.52-.61,1.14-1.1,1.85-1.47.67-.32,1.41-.49,2.15-.48.78-.01,1.55.16,2.24.52.7.37,1.3.9,1.75,1.56.13.19.25.39.36.6.12.23.24.49.37.78.11.24.2.48.28.73.05.16.08.32.09.48,0,.16-.09.31-.24.37-.23.09-.48.13-.73.12h-7.78l-.02-.02ZM199.16,27.66h5.07c.3.01.6-.03.89-.12.17-.04.28-.19.29-.36,0-.39-.08-.78-.25-1.13-.19-.38-.45-.71-.76-1-.3-.31-.66-.57-1.05-.76-.36-.17-.75-.25-1.14-.25-.39,0-.77.08-1.12.24-.35.18-.67.43-.92.74-.28.35-.51.75-.66,1.17-.18.47-.3.97-.35,1.47Z"/><path class="cls-1" d="M212.32,25.17v7.53c0,.41.02.81.1,1.21.04.25.16.49.32.69.21.21.46.38.74.48.32.11.66.17,1,.16.28,0,.56-.03.84-.08.24-.05.48-.14.7-.25l.39-.19.38-.19h.09s.09-.02.14,0v.12c-.02.2-.13.39-.29.51-.27.22-.57.4-.89.55-.37.18-.75.32-1.14.43-.35.09-.7.14-1.06.14-.95.07-1.88-.25-2.58-.9-.62-.75-.93-1.71-.86-2.68v-7.53h-1.33c-.1,0-.2-.01-.29-.06-.07-.03-.11-.1-.1-.17,0-.09.04-.17.1-.24.08-.11.18-.21.29-.3.55-.46,1.06-.95,1.55-1.48.41-.47.79-.96,1.13-1.49.1-.18.22-.34.35-.5.09-.11.17-.16.23-.16.07,0,.13.03.16.09.02.1.02.2,0,.3v2.59h3.18c.2,0,.39-.02.58-.06.15-.03.3-.09.43-.18l.2-.13s.08-.04.13-.05c.04-.02.08-.02.12,0,.02.05.02.09,0,.14,0,.04,0,.09,0,.13-.03.08-.06.16-.1.24l-.17.43-.17.43c-.04.13-.12.25-.24.33-.12.07-.27.11-.41.11h-3.54l.02.03Z"/><path class="cls-1" d="M221.08,25.74c.55-.72,1.23-1.32,2-1.79.66-.39,1.42-.59,2.19-.59.65,0,1.3.11,1.9.36.58.25,1.09.62,1.51,1.09.45.48.79,1.05,1,1.67.22.68.33,1.4.32,2.12v4.74c0,.34.02.67.09,1,.04.22.14.42.28.59.17.16.36.29.58.37.33.11.66.2,1,.25.11,0,.21.05.3.11.07.05.1.14.1.22,0,.08-.03.16-.1.2-.09.05-.2.08-.31.07h-5.02c-.11,0-.22-.02-.31-.07-.07-.04-.12-.12-.11-.21,0-.06.02-.13.07-.17.07-.06.14-.1.23-.13.25-.1.46-.19.62-.27.12-.06.23-.15.32-.25.07-.1.12-.22.14-.34.02-.19.02-.37,0-.56v-5.46c0-.57-.07-1.14-.24-1.69-.15-.48-.4-.93-.73-1.31-.31-.36-.7-.64-1.13-.83-.46-.19-.96-.28-1.46-.28-.41,0-.81.07-1.2.2-.39.14-.75.34-1.07.59-.3.22-.56.51-.76.83-.16.29-.25.61-.25.94v5.77c0,.42.02.84.08,1.25.03.26.12.5.26.72.16.18.36.31.59.38.35.12.72.21,1.09.25.14.01.27.06.38.13.08.05.13.14.13.24,0,.07-.03.14-.08.19-.08.04-.16.07-.25.06h-3.83l-1,.05h-.69c-.1,0-.19-.02-.28-.06-.06-.04-.09-.1-.1-.17,0-.08.02-.17.08-.23.08-.07.17-.12.27-.14.25-.07.48-.17.71-.29.15-.07.28-.19.37-.33.09-.18.14-.38.15-.58.03-.33.05-.67.05-1v-15.66c.03-.47-.05-.93-.25-1.36-.14-.28-.44-.45-.75-.42h-.98s-.06-.05-.07-.08c-.01-.04-.01-.08,0-.12,0-.07.03-.14.09-.18.07-.06.16-.1.25-.12.34-.08.67-.19,1-.31.37-.14.74-.29,1.1-.47l.59-.27.58-.28.17-.07h.15c.07,0,.14.03.19.08.04.08.07.16.06.25v11.37h-.02Z"/><path class="cls-1" d="M239.76,23.36c.86-.01,1.71.15,2.5.47.79.33,1.51.81,2.12,1.42.61.59,1.1,1.29,1.45,2.07.32.77.49,1.6.48,2.43.01.89-.15,1.77-.48,2.6-.32.79-.8,1.51-1.42,2.1-.62.6-1.35,1.07-2.15,1.39-.85.32-1.75.47-2.65.46-.88.01-1.76-.14-2.59-.45-.78-.3-1.49-.76-2.09-1.35-.59-.56-1.06-1.25-1.37-2-.32-.82-.47-1.69-.46-2.56,0-.86.15-1.72.48-2.52.71-1.6,2-2.86,3.61-3.54.82-.33,1.69-.51,2.57-.52ZM239.37,23.96c-.58,0-1.15.11-1.68.35-.52.22-.97.57-1.33,1-.39.47-.68,1.01-.86,1.59-.19.65-.29,1.32-.28,2-.01.89.11,1.78.35,2.63.23.77.59,1.5,1.07,2.15.42.6.97,1.09,1.61,1.45,1.12.59,2.45.64,3.61.14.49-.23.92-.57,1.26-1,.37-.48.64-1.03.8-1.61.19-.68.28-1.38.27-2.09.01-.9-.1-1.81-.34-2.68-.2-.76-.54-1.48-1-2.12-.4-.58-.93-1.05-1.55-1.39-.6-.29-1.27-.42-1.93-.38v-.04Z"/><path class="cls-1" d="M257.72,34.09c-.51.43-1,.8-1.38,1.09-.34.26-.71.48-1.09.67-.32.15-.66.26-1,.34-.38.07-.76.11-1.14.11-.71,0-1.42-.14-2.07-.44-.66-.31-1.25-.76-1.72-1.32-.51-.59-.89-1.27-1.14-2-.27-.77-.4-1.58-.39-2.39-.01-.9.14-1.8.46-2.64.31-.82.77-1.56,1.37-2.2.56-.63,1.24-1.13,2-1.48.77-.33,1.61-.5,2.45-.49.61,0,1.22.08,1.81.26.63.19,1.24.45,1.81.79v-5.87c.04-.72-.09-1.44-.38-2.1-.21-.43-.66-.69-1.14-.64h-.71s-.09-.05-.12-.09c-.03-.04-.04-.09-.05-.14-.02-.09.02-.19.09-.25.1-.07.22-.12.35-.13.56-.08,1.11-.22,1.64-.44.65-.25,1.27-.56,1.86-.93.05-.03.1-.05.15-.07h.13c.07,0,.13.03.17.08.04.08.07.16.06.25v19.24c-.03.44.06.88.26,1.27.16.27.45.44.77.42h1.02s.09.05.12.09c.02.05.02.1,0,.15,0,.1-.05.19-.13.25-.12.08-.26.12-.41.13h-.78l-.42.07-.42.06c-.25.07-.5.16-.75.26-.17.03-.33.09-.49.16l-.26.12c-.06.01-.13.01-.19,0-.12.01-.23-.06-.26-.18-.07-.18-.1-.37-.09-.56v-1.45h.01ZM257.72,32.28v-4.93c0-.4-.04-.79-.16-1.17-.1-.3-.27-.57-.49-.8-.47-.46-1.02-.82-1.62-1.06-.6-.24-1.24-.37-1.89-.36-.56,0-1.12.11-1.63.34-.5.23-.93.58-1.28,1-.38.47-.66,1-.83,1.58-.19.65-.29,1.32-.28,2,0,.77.11,1.55.36,2.28.24.73.61,1.4,1.09,2,.43.55.97,1.01,1.59,1.35.57.3,1.21.45,1.85.45.45,0,.89-.06,1.32-.19.38-.12.74-.31,1.05-.57.3-.23.53-.53.69-.87.15-.33.23-.69.23-1.05Z"/><path class="cls-1" d="M267.13,23.36c.37,0,.74.02,1.1.07.32.05.63.12.93.23l.33.11.33.12c.12.03.22.09.3.18.07.07.11.17.11.27v1.8c0,.15-.02.3-.09.44-.05.1-.14.16-.25.16-.07,0-.13-.04-.18-.09-.07-.09-.13-.19-.16-.3-.22-.67-.63-1.26-1.18-1.69-.55-.39-1.22-.59-1.9-.57-.28,0-.55.04-.81.13-.24.08-.47.21-.66.38-.18.16-.33.36-.43.58-.1.22-.15.47-.14.71,0,.26.05.51.15.75.11.23.27.43.47.59.29.22.6.41.93.56.42.21.94.44,1.57.68.55.21,1.07.46,1.58.75.37.22.71.49,1,.8.24.28.43.6.54.95.12.4.19.82.18,1.24,0,.54-.1,1.07-.31,1.56-.22.5-.54.96-.94,1.33-.8.79-1.88,1.22-3,1.2-.44,0-.87-.06-1.29-.17-.48-.13-.95-.31-1.4-.53l-.28-.12s-.1,0-.15,0h-.39c-.1,0-.19-.04-.27-.1-.07-.07-.11-.17-.11-.27v-3.09c.01-.11.05-.21.11-.3.06-.07.14-.11.23-.12.09,0,.18.04.23.11.07.1.11.22.13.34.09.5.25,1,.47,1.46.19.41.44.78.75,1.1.28.29.62.53,1,.69.37.16.77.24,1.18.23.34,0,.68-.05,1-.16.3-.1.57-.26.8-.48.22-.2.4-.45.52-.73.11-.29.17-.61.17-.92.01-.48-.14-.94-.42-1.33-.33-.42-.77-.75-1.27-.94l-.66-.3-.65-.29c-.53-.22-1.05-.49-1.54-.79-.37-.23-.7-.5-1-.81-.24-.27-.43-.58-.56-.92-.13-.36-.2-.73-.19-1.11,0-.46.09-.91.29-1.32.21-.42.5-.8.86-1.1.38-.33.82-.58,1.29-.74.54-.18,1.11-.25,1.68-.23Z"/><path class="cls-1" d="M1,1.43v28.75c.02,10.15,8.24,18.37,18.39,18.39h16.41v-9.48h-16.41c-4.92,0-8.91-3.99-8.91-8.91V1.43H1Z"/><path class="cls-1" d="M98.82,33.8h6.31v2.25h-8.75v-12.69h2.44v10.44Z"/><path class="cls-1" d="M118.27,29.65c.03,1.73-.6,3.4-1.75,4.69-2.31,2.46-6.18,2.58-8.64.27-.09-.09-.19-.18-.27-.27-2.33-2.69-2.33-6.68,0-9.37,2.33-2.46,6.21-2.57,8.67-.24.08.08.17.16.24.24,1.15,1.28,1.78,2.96,1.75,4.68ZM115.84,29.65c0-1.1-.39-2.16-1.1-3-.66-.79-1.64-1.26-2.67-1.27-1.04.01-2.01.48-2.68,1.27-1.47,1.77-1.47,4.34,0,6.11.67.78,1.65,1.23,2.68,1.24,1.03-.01,2.01-.48,2.67-1.27.72-.86,1.11-1.95,1.1-3.08Z"/><path class="cls-1" d="M125.08,36.05h-2.43v-4.87l-2.13-3.91-2.13-3.91h2.72l1.37,2.71,1.37,2.72,1.38-2.72,1.38-2.71h2.73l-2.13,3.91-2.13,3.91v4.87h0Z"/><path class="cls-1" d="M131.92,33.51l-.43,1.27-.43,1.27h-2.56l2.21-6.35,2.21-6.34h3.08l2.21,6.34,2.21,6.35h-2.56l-.43-1.27-.43-1.27h-5.08ZM134.44,26l-.89,2.61-.88,2.61h3.54l-.88-2.61-.89-2.61Z"/><path class="cls-1" d="M144.74,33.8h6.31v2.25h-8.75v-12.69h2.44v10.44Z"/><path class="cls-1" d="M156,25.61v10.44h-2.41v-10.44h-3.41v-2.25h9.22v2.25h-3.4Z"/><path class="cls-1" d="M167.26,36.05h-2.43v-4.87l-2.13-3.91-2.13-3.91h2.73l1.37,2.71,1.33,2.72,1.38-2.72,1.38-2.71h2.73l-2.13,3.91-2.14,3.91v4.87h.04Z"/></svg>