<svg xmlns="http://www.w3.org/2000/svg" width="141" height="48" viewBox="0 0 141 48" fill="none"><g clip-path="url(#clip0_807_2263)"><path d="M58.0352 0.926575V17.6228L64.2962 13.4487L70.5573 9.27469L64.2962 5.10161L58.0352 0.926575Z" fill="#5D5C60"></path><path d="M83.0804 0.926575L76.8193 5.10161L70.5592 9.27469L76.8193 13.4487L83.0804 17.6228V0.926575Z" fill="#5D5C60"></path><path d="M40.3766 26.303H35.8931V27.3617H37.5127V33.4716H38.7423V27.3627H40.3766V26.303Z" fill="#5D5C60"></path><path d="M0.334961 26.2862V33.4558H1.56656V30.4338H3.9934V29.377H1.56656V27.3459H4.11322V26.2862H0.334961Z" fill="#5D5C60"></path><path d="M13.4098 26.1389C12.6826 26.1884 11.9857 26.4491 11.4045 26.889C10.8234 27.329 10.3833 27.929 10.1383 28.6154C9.89322 29.3019 9.85389 30.045 10.0251 30.7535C10.1963 31.462 10.5706 32.1051 11.1021 32.6039C11.6335 33.1027 12.299 33.4356 13.0169 33.5616C13.7348 33.6876 14.4739 33.6013 15.1435 33.3133C15.8131 33.0253 16.384 32.5481 16.7863 31.9403C17.1886 31.3325 17.4047 30.6205 17.4081 29.8916C17.374 28.8643 16.934 27.8924 16.1845 27.1889C15.435 26.4855 14.4372 26.1079 13.4098 26.1389ZM13.4098 32.5551C12.8829 32.5381 12.3726 32.3662 11.9429 32.0609C11.5131 31.7555 11.1828 31.3303 10.9933 30.8383C10.8038 30.3464 10.7635 29.8095 10.8774 29.2947C10.9914 28.78 11.2545 28.3102 11.6339 27.9441C12.0133 27.578 12.4921 27.3319 13.0106 27.2364C13.5291 27.141 14.0642 27.2004 14.5491 27.4074C15.034 27.6143 15.4472 27.9596 15.737 28.4C16.0267 28.8405 16.1803 29.3565 16.1785 29.8837C16.1655 30.6051 15.8666 31.2918 15.3474 31.7928C14.8282 32.2938 14.1312 32.568 13.4098 32.5551Z" fill="#5D5C60"></path><path d="M59.4144 26.2852H58.1848V33.4597H59.4144V26.2852Z" fill="#5D5C60"></path><path d="M83.8648 27.3459V26.2872H79.8646V33.4567H83.8648V32.4009H81.0913V30.4367H83.743V29.3779H81.0913V27.3459H83.8648Z" fill="#5D5C60"></path><path d="M102.603 26.2862V33.4607H106.227V32.402H103.828V26.2862H102.603Z" fill="#5D5C60"></path><path d="M116.693 27.3459V26.2872H112.687V33.4567H116.693V32.4009H113.921V30.4367H116.579V29.3779H113.921V27.3459H116.693Z" fill="#5D5C60"></path><path d="M140.781 30.8698V26.2852H139.548V30.8698C139.548 31.9885 139.057 32.5552 138.075 32.5552C137.093 32.5552 136.602 31.9885 136.602 30.8698C136.602 30.8698 136.614 26.4218 136.614 26.2852H135.368V30.8698C135.322 31.4808 135.487 32.0892 135.837 32.5925C136.113 32.9172 136.458 33.1767 136.846 33.3523C137.234 33.5279 137.657 33.6152 138.083 33.608C138.514 33.6182 138.942 33.5285 139.333 33.3459C139.724 33.1632 140.067 32.8926 140.336 32.5552C140.665 32.0575 140.82 31.4648 140.776 30.8698" fill="#5D5C60"></path><path d="M95.9585 31.3588C95.9818 30.9687 95.8681 30.5827 95.6369 30.2676C95.4057 29.9524 95.0716 29.7281 94.6925 29.6332L94.4381 29.5419L94.6797 29.428C94.9288 29.314 95.1391 29.1296 95.2845 28.8974C95.4299 28.6653 95.504 28.3956 95.4978 28.1217C95.4894 27.8754 95.4291 27.6336 95.321 27.4121C95.2129 27.1906 95.0593 26.9943 94.8703 26.8361C94.1804 26.3849 93.3527 26.1934 92.5348 26.2959H90.8848V33.4351H93.0828C93.7598 33.472 94.4343 33.3268 95.0362 33.0147C95.3175 32.8402 95.5497 32.597 95.711 32.308C95.8724 32.019 95.9575 31.6937 95.9585 31.3628M92.1085 27.3458H93.0406C94.1533 27.3458 94.2712 27.9793 94.2712 28.2582C94.2712 28.8534 93.8145 29.1657 92.9139 29.1657H92.1085V27.3458ZM93.1692 32.3803H92.1085V30.2078H93.2006C94.6267 30.2078 94.7367 31.0436 94.7367 31.3068C94.7367 31.7978 94.4646 32.3763 93.1653 32.3763" fill="#5D5C60"></path><path d="M127.681 31.8047L128.343 33.4587H129.738C129.738 33.4587 126.721 26.6819 126.544 26.2891H125.553C125.519 26.3667 122.466 33.2809 122.384 33.4587H123.754L124.419 31.8116L127.681 31.8047ZM126.046 27.7318L127.244 30.7342H124.841L126.046 27.7318Z" fill="#5D5C60"></path><path d="M50.2592 31.8047L50.9182 33.4587H52.3128C52.3128 33.4587 49.2957 26.6819 49.117 26.2891H48.127C48.0906 26.3667 45.0392 33.2809 44.9586 33.4587H46.3277L46.9946 31.8116L50.2592 31.8047ZM48.623 27.7318L49.8221 30.7342H47.4159L48.623 27.7318Z" fill="#5D5C60"></path><path d="M23.5666 26.2999H25.192L28.6756 31.843L28.6923 31.8656H28.6756L28.6923 31.843V26.2999H29.9308V33.4596H28.3594L24.809 27.8566H24.7854V33.4547H23.5666V26.2999Z" fill="#5D5C60"></path><path d="M66.4101 26.2999H68.0355L71.5201 31.843L71.5368 31.8656H71.5201L71.5368 31.843V26.2999H72.7733V33.4596H71.2019L67.6505 27.8615H67.6309V33.4596H66.4101V26.2999Z" fill="#5D5C60"></path><path d="M28.717 41.5368V47.466H31.7616V46.9297H29.3063V41.5368H28.717Z" fill="#5D5C60"></path><path d="M40.0136 42.2096L41.1499 44.934H38.8517L40.0136 42.2096ZM39.6767 41.5368L37.1438 47.466H37.7606L38.6268 45.4703H41.3827L42.2401 47.466H42.8893L40.3357 41.5368H39.6767Z" fill="#5D5C60"></path><path d="M49.0346 45.8099C49.0345 46.1277 49.1591 46.4328 49.3814 46.6598C49.6038 46.8867 49.9063 47.0175 50.224 47.0239C50.5417 47.0303 50.8492 46.9119 51.0806 46.6941C51.3119 46.4764 51.4487 46.1765 51.4615 45.859C51.4615 44.9457 50.5422 44.7119 50.1405 44.5921C49.6033 44.432 48.6025 44.2071 48.6025 43.0305C48.615 42.5986 48.7958 42.1887 49.1065 41.8884C49.4172 41.5881 49.833 41.4212 50.265 41.4234C50.6971 41.4256 51.1112 41.5967 51.4188 41.9001C51.7264 42.2035 51.9032 42.6152 51.9113 43.0472H51.322C51.3252 42.7651 51.2167 42.4933 51.0202 42.2909C50.8237 42.0885 50.5551 41.972 50.2731 41.9669C50.134 41.9617 49.9952 41.9847 49.8652 42.0344C49.7351 42.0841 49.6164 42.1595 49.5162 42.2562C49.416 42.3528 49.3363 42.4687 49.2819 42.5968C49.2275 42.725 49.1995 42.8628 49.1996 43.002C49.1996 43.7209 49.8311 43.8859 50.609 44.1148C51.0157 44.1805 51.3855 44.3896 51.6514 44.7043C51.9173 45.019 52.0618 45.4186 52.0586 45.8306C52.0566 46.0622 52.0086 46.2912 51.9176 46.5042C51.8265 46.7172 51.6942 46.91 51.5281 47.0716C51.3621 47.2332 51.1657 47.3602 50.9503 47.4454C50.7349 47.5306 50.5047 47.5722 50.2731 47.568C50.0348 47.5808 49.7964 47.5444 49.5728 47.4609C49.3493 47.3774 49.1454 47.2486 48.9739 47.0827C48.8024 46.9167 48.667 46.7172 48.5763 46.4965C48.4855 46.2758 48.4412 46.0387 48.4463 45.8001L49.0346 45.8099Z" fill="#5D5C60"></path><path d="M69.5603 41.5368L67.4614 46.7284L65.3695 41.5368H64.7125L67.157 47.466H67.7463L70.2065 41.5368H69.5603Z" fill="#5D5C60"></path><path d="M76.1144 41.5368V47.466H79.3555V46.9297H76.7037V44.7415H79.2671V44.2043H76.7037V42.078H79.3555V41.5408L76.1144 41.5368Z" fill="#5D5C60"></path><path d="M91.7601 44.7405C91.6884 45.5192 91.3264 46.2425 90.7459 46.7665C90.1655 47.2905 89.4091 47.577 88.6271 47.569C88.2162 47.5823 87.8068 47.5129 87.4231 47.3649C87.0395 47.2169 86.6895 46.9933 86.394 46.7075C86.0984 46.4217 85.8632 46.0794 85.7025 45.7009C85.5417 45.3225 85.4586 44.9156 85.4581 44.5044C85.4575 44.0933 85.5396 43.6862 85.6994 43.3073C85.8592 42.9285 86.0935 42.5856 86.3883 42.299C86.6832 42.0124 87.0326 41.788 87.4158 41.639C87.799 41.49 88.2083 41.4195 88.6193 41.4317C89.1972 41.4226 89.7662 41.5754 90.2618 41.8727C90.7575 42.17 91.1602 42.6 91.4243 43.1141H90.7368C90.5119 42.7597 90.2003 42.4685 89.8315 42.2681C89.4627 42.0677 89.0488 41.9648 88.6291 41.9689C88.2926 41.9641 87.9584 42.0263 87.6462 42.1521C87.3341 42.2779 87.0501 42.4647 86.8109 42.7015C86.5718 42.9383 86.3822 43.2204 86.2534 43.5314C86.1245 43.8423 86.059 44.1758 86.0605 44.5124C86.0621 44.849 86.1308 45.1818 86.2625 45.4916C86.3942 45.8013 86.5864 46.0816 86.8277 46.3162C87.0691 46.5508 87.3548 46.7349 87.6682 46.8578C87.9815 46.9807 88.3162 47.0398 88.6527 47.0318C89.1867 47.0325 89.707 46.8627 90.1378 46.5472C90.5686 46.2318 90.8875 45.787 91.0481 45.2777H87.7393V44.7405H91.7601Z" fill="#5D5C60"></path><path d="M100.357 42.2096L101.494 44.934H99.1952L100.357 42.2096ZM100.021 41.5368L97.4854 47.466H98.1031L98.9674 45.4703H101.724L102.582 47.466H103.231L100.677 41.5368H100.021Z" fill="#5D5C60"></path><path d="M109.378 45.8099C109.378 46.1277 109.503 46.4328 109.725 46.6598C109.947 46.8867 110.25 47.0175 110.567 47.0239C110.885 47.0303 111.193 46.9119 111.424 46.6941C111.655 46.4764 111.792 46.1765 111.805 45.859C111.805 44.9457 110.886 44.7119 110.483 44.5921C109.947 44.432 108.946 44.2071 108.946 43.0305C108.958 42.5986 109.139 42.1887 109.45 41.8884C109.761 41.5881 110.176 41.4212 110.609 41.4234C111.041 41.4256 111.455 41.5967 111.762 41.9001C112.07 42.2035 112.247 42.6152 112.255 43.0472H111.666C111.669 42.7651 111.56 42.4933 111.364 42.2909C111.167 42.0885 110.899 41.972 110.617 41.9669C110.477 41.9617 110.339 41.9847 110.209 42.0344C110.079 42.0841 109.96 42.1595 109.86 42.2562C109.76 42.3528 109.68 42.4687 109.625 42.5968C109.571 42.725 109.543 42.8628 109.543 43.002C109.543 43.7209 110.175 43.8859 110.952 44.1148C111.359 44.1805 111.729 44.3896 111.995 44.7043C112.261 45.019 112.405 45.4186 112.402 45.8306C112.4 46.0622 112.352 46.2912 112.261 46.5042C112.17 46.7172 112.038 46.91 111.872 47.0716C111.706 47.2332 111.509 47.3602 111.294 47.4454C111.078 47.5306 110.848 47.5722 110.617 47.568C110.378 47.5808 110.14 47.5444 109.916 47.4609C109.693 47.3774 109.489 47.2486 109.317 47.0827C109.146 46.9167 109.011 46.7172 108.92 46.4965C108.829 46.2758 108.785 46.0387 108.79 45.8001L109.378 45.8099Z" fill="#5D5C60"></path></g><defs><clipPath id="clip0_807_2263"><rect width="140.445" height="46.6424" fill="white" transform="translate(0.334961 0.926575)"></rect></clipPath></defs></svg>