<svg xmlns="http://www.w3.org/2000/svg" width="169" height="33" viewBox="0 0 169 33" fill="none"><g clip-path="url(#clip0_807_2238)"><path d="M49.5447 22.4622H47.3498V14.5791L44.1494 20.4459H42.8689L39.5769 14.5791V22.4622H37.3828V10.4546H39.5769L43.5092 17.421L47.3498 10.4546H49.5447V22.4622Z" fill="#717171"></path><path d="M62.713 22.1873C61.3416 22.5541 60.0612 22.7371 58.7807 22.7371C56.7691 22.7371 55.1227 22.0954 53.8422 20.9038C52.6534 19.7123 52.0132 18.2458 52.0132 16.5044C52.0132 14.6711 52.6534 13.2046 53.9339 12.013C55.2144 10.8214 56.7691 10.2716 58.7807 10.2716C59.9695 10.2716 61.0665 10.3635 62.1644 10.6384L61.8902 12.5637C60.7014 12.3807 59.7869 12.2888 59.055 12.2888C57.5919 12.2888 56.4031 12.6556 55.5803 13.3884C54.7575 14.1221 54.3916 15.1298 54.3916 16.5052C54.3916 17.6968 54.7575 18.7054 55.5803 19.5301C56.3123 20.2638 57.4094 20.7217 58.6898 20.7217C59.3301 20.7217 59.9703 20.6298 60.6105 20.5387V16.5052H62.7138L62.713 22.1873Z" fill="#717171"></path><path d="M77.8019 22.4622H75.6069V14.5791L72.3149 20.4459H71.0352L67.834 14.5791V22.4622H65.6399V10.4546H67.834L71.7663 17.421L75.6069 10.4546H77.8019V22.4622Z" fill="#717171"></path><path d="M93.2568 14.2123C93.2568 13.6625 93.0742 13.2037 92.7082 12.8377C92.3423 12.4709 91.8854 12.2879 91.3369 12.2879H87.7706V16.0465H91.3369C91.8854 16.0465 92.3431 15.8635 92.7082 15.4966C93.0734 15.2209 93.2568 14.763 93.2568 14.2123ZM96.8231 22.4622H93.9879L90.6958 17.8789H87.7697V22.4622H85.4839V10.4546H91.702C92.7991 10.4546 93.8053 10.8214 94.5372 11.5542C95.2692 12.2879 95.6343 13.1126 95.6343 14.2123C95.6343 14.946 95.4517 15.6788 94.9941 16.2286C94.5372 16.8704 93.9879 17.3283 93.2568 17.6032L96.8231 22.4622Z" fill="#717171"></path><path d="M107.339 22.4622H98.7429V10.4546H107.339V12.4709H101.03V15.3128H106.973V17.3291H101.03V20.537H107.339V22.4622Z" fill="#717171"></path><path d="M119.227 19.254C119.227 20.3536 118.77 21.1792 117.856 21.8201C116.941 22.4618 115.752 22.7367 114.289 22.7367C112.46 22.7367 110.815 22.3699 109.351 21.7282L109.899 19.8949C111.454 20.4447 113.009 20.7196 114.289 20.7196C116.118 20.7196 116.94 20.2617 116.94 19.2531C116.94 18.8863 116.758 18.5194 116.3 18.2445C115.935 18.0624 115.204 17.6955 113.832 17.2376C112.278 16.6878 111.272 16.1371 110.723 15.6792C110.083 15.1294 109.809 14.3957 109.809 13.388C109.809 11.2798 111.363 10.2712 114.564 10.2712C116.118 10.2712 117.581 10.4542 118.862 10.821L118.496 12.6544C117.124 12.3794 115.844 12.1964 114.564 12.1964C113.649 12.1964 113.009 12.2875 112.552 12.4714C112.186 12.6544 112.003 12.9293 112.003 13.388C112.003 13.8468 112.277 14.1217 112.735 14.4877C113.101 14.6707 113.923 15.0375 115.386 15.5873C116.941 16.1371 117.856 16.6878 118.313 17.0538C118.953 17.5126 119.227 18.2454 119.227 19.254Z" fill="#717171"></path><path d="M130.475 16.504C130.475 15.3124 130.109 14.3038 129.469 13.4791C128.829 12.6544 127.914 12.2875 126.726 12.2875C125.629 12.2875 124.714 12.6544 124.074 13.4791C123.434 14.3038 123.068 15.2205 123.068 16.504C123.068 17.6955 123.434 18.7041 124.074 19.4369C124.714 20.2617 125.629 20.6285 126.817 20.6285C127.914 20.6285 128.829 20.2617 129.561 19.4369C130.201 18.7041 130.475 17.6955 130.475 16.504ZM132.761 16.504C132.761 18.2454 132.213 19.7119 131.024 20.9034C129.835 22.095 128.464 22.7367 126.726 22.7367C124.987 22.7367 123.616 22.095 122.427 20.9034C121.239 19.7119 120.691 18.2454 120.691 16.504C120.691 14.7626 121.239 13.2961 122.428 12.1045C123.617 10.913 124.988 10.2712 126.726 10.2712C128.465 10.2712 129.836 10.913 131.025 12.1045C132.214 13.2961 132.761 14.7626 132.761 16.504Z" fill="#717171"></path><path d="M143.003 14.2127C143.003 13.6629 142.821 13.2041 142.455 12.8381C142.089 12.4713 141.632 12.2883 141.083 12.2883H137.517V16.0469H141.083C141.632 16.0469 142.09 15.8639 142.455 15.497C142.821 15.2204 143.003 14.7625 143.003 14.2127ZM146.57 22.4618H143.734L140.442 17.8785H137.517V22.4618H135.231V10.4542H141.449C142.546 10.4542 143.553 10.821 144.285 11.5538C145.017 12.2875 145.382 13.1122 145.382 14.2119C145.382 14.9455 145.199 15.6784 144.741 16.2282C144.285 16.8699 143.735 17.3278 143.004 17.6027L146.57 22.4618Z" fill="#717171"></path><path d="M157.27 12.4709H153.337V22.4622H151.051V12.4709H147.027V10.4546H157.27V12.4709Z" fill="#717171"></path><path d="M168.426 19.2543C168.426 20.354 167.969 21.1796 167.055 21.8205C166.14 22.4614 164.952 22.7371 163.489 22.7371C161.66 22.7371 160.014 22.3703 158.55 21.7285L159.099 19.8952C160.653 20.4451 162.208 20.72 163.488 20.72C165.317 20.72 166.14 20.2621 166.14 19.2535C166.14 18.8866 165.957 18.5198 165.499 18.2449C165.133 18.0619 164.402 17.6951 163.03 17.2363C161.475 16.6865 160.47 16.1367 159.921 15.6779C159.28 15.1281 159.006 14.3944 159.006 13.3867C159.006 11.2785 160.561 10.2699 163.761 10.2699C165.316 10.2699 166.779 10.4529 168.059 10.8197L167.693 12.653C166.322 12.3781 165.042 12.1951 163.761 12.1951C162.847 12.1951 162.206 12.2871 161.75 12.47C161.384 12.653 161.201 12.928 161.201 13.3867C161.201 13.8446 161.475 14.1204 161.933 14.4864C162.299 14.6693 163.122 15.0362 164.585 15.586C166.14 16.1358 167.054 16.6857 167.511 17.0525C168.151 17.5121 168.426 18.2457 168.426 19.2543Z" fill="#717171"></path><path d="M2.26727 13.7544C2.26727 16.5963 2.7241 19.2543 4.18799 21.4536V19.5284C4.18799 17.1453 6.1087 15.4949 8.02857 14.3953C6.01616 15.129 3.82117 14.6711 2.26727 13.7544Z" fill="#717171"></path><path d="M3.91288 11.7381H3.27264C3.18094 11.3713 4.18715 10.7295 4.46142 11.1883L3.91288 11.7381ZM1.90131 11.4624C2.44984 11.8292 3.18178 12.0122 4.00458 11.9203C4.64482 12.3782 5.55933 11.0955 6.47383 11.0955C7.84517 10.9125 9.58332 10.7287 10.4978 11.9203L10.0401 11.0045C8.75967 10.9125 7.6626 10.4546 6.6564 9.9048C4.64482 8.98815 3.63861 11.9211 1.90131 11.4624Z" fill="#717171"></path><path d="M0.712542 6.78798C1.35278 6.97098 1.99218 7.15481 2.63241 7.15481C4.00375 6.60499 4.36972 5.50449 3.82119 4.03801C2.99838 2.84644 1.90047 2.20469 0.7117 1.92978L0.712542 6.78798Z" fill="#717171"></path><path d="M9.85675 32.8204C10.0393 32.6374 10.3136 32.3625 10.497 32.0867C14.155 27.3204 7.02238 24.5705 7.20494 19.9872C7.3875 18.1539 8.39371 16.7793 9.58249 15.3128L9.49078 15.2209C8.39371 16.3205 7.93604 17.0542 7.20494 18.1539C5.00996 22.6452 8.11945 28.878 4.9191 32.7285L9.85675 32.8204Z" fill="#717171"></path><path d="M24.6714 16.6874C24.6714 23.287 21.5619 29.0618 16.7151 32.8195H32.8094V0.555206H16.7151C21.5619 4.22184 24.6714 10.0878 24.6714 16.6874Z" fill="#717171"></path><path d="M0.712553 32.8204H3.45607L4.09631 32.1786C7.84519 27.0455 3.36436 23.4708 0.62085 19.4373L0.712553 32.8204Z" fill="#717171"></path><path d="M8.30202 0.555206H0.712555V1.10503C1.4445 1.19695 2.2673 1.47186 2.90754 1.74678C4.46228 2.66343 5.65105 4.12992 5.46764 5.96323L8.8514 5.5964C9.30823 4.49675 9.49079 2.75451 9.03396 1.83785C8.8514 1.28803 8.57713 0.830119 8.30202 0.555206Z" fill="#717171"></path><path d="M9.85675 0.555206C10.5887 1.56378 10.5887 2.84643 10.6796 3.85501C12.0509 2.84643 13.6973 2.20468 15.4346 2.66343C14.2467 1.74678 13.4231 1.01311 11.96 0.463287L9.85675 0.555206Z" fill="#717171"></path><path d="M16.6243 16.9623L16.35 17.6959L15.984 16.7793C15.1612 16.9623 14.3376 17.2372 13.8807 18.1539C13.789 18.4288 13.9724 18.8875 13.6982 19.0705C13.1496 18.9786 13.4239 18.0619 13.4239 17.5121C14.0641 16.8704 15.8015 15.4958 16.4417 16.0456C16.6243 16.1375 16.7151 16.5955 16.6243 16.9623ZM12.9662 23.5619C12.5094 23.1951 12.692 22.5533 12.692 22.0954L12.9662 21.8205C13.4231 23.287 14.6127 21.5456 15.5263 21.7286C15.9832 21.5456 15.8006 20.9038 16.2583 20.9949C16.9902 23.287 14.2467 22.8291 12.9662 23.5619ZM19.5503 23.8368C19.9163 20.8119 19.642 17.604 17.4471 15.4958C16.9902 15.4039 16.35 15.6788 15.984 15.2209C14.9778 16.1375 13.6982 16.5044 12.7837 17.5121C11.7775 17.787 10.7721 17.1453 9.76589 16.9623C9.76589 16.7793 9.76589 16.6874 9.76589 16.5955C8.39455 17.5121 8.75968 19.3454 8.48541 20.72C8.85138 22.2784 10.5887 22.9201 11.6858 23.8368C13.4231 24.1117 14.9778 23.3789 16.4409 22.8282C16.7151 23.1031 17.0811 23.2861 16.8977 23.653C15.7089 25.3033 13.9716 26.0361 11.9592 25.8531C13.148 28.1443 12.3252 30.8032 11.0447 32.8195H12.2335C15.8923 31.1701 19.2761 28.6039 19.5503 23.8368Z" fill="#717171"></path><path d="M22.2021 11.4623C21.1959 7.97954 18.0873 3.30433 13.9716 3.57924C12.4168 3.67116 10.8621 4.86273 10.3136 5.77939C11.4106 6.42114 12.5994 7.33779 13.6056 8.25445C13.5139 8.62128 13.7882 9.07919 13.3314 9.26303C12.7828 8.80512 12.3251 7.70463 11.594 8.07146C12.1426 9.26303 13.6056 9.35495 14.7035 9.62986C15.1604 10.0878 14.9778 10.8214 15.8923 10.4546C16.3491 10.5465 16.5325 11.0963 16.6242 11.4632C15.8923 12.8377 13.8807 11.9211 12.7837 12.1968C13.6982 12.5637 14.7044 12.6547 15.5272 13.2054C16.35 13.7552 16.6242 12.4718 16.9902 12.0138C18.4533 12.3807 17.6305 13.9391 18.2707 14.7638C21.3802 17.9717 20.7399 23.6546 19.1852 27.3213C23.4826 23.5619 23.1166 14.946 22.2021 11.4623Z" fill="#717171"></path></g><defs><clipPath id="clip0_807_2238"><rect width="167.805" height="32.3571" fill="white" transform="translate(0.620819 0.463287)"></rect></clipPath></defs></svg>