<svg xmlns="http://www.w3.org/2000/svg" width="134" height="33" viewBox="0 0 134 33" fill="none"><g clip-path="url(#clip0_807_2210)"><path fill-rule="evenodd" clip-rule="evenodd" d="M16.6102 28.2122C19.4231 33.1495 24.0251 33.1495 26.8377 28.2122L28.4111 25.4504L14.3303 0.678131H0.965149L16.6102 28.2122Z" fill="#717171"></path><path fill-rule="evenodd" clip-rule="evenodd" d="M46.2627 17.6298C45.2351 19.4297 42.8157 19.4278 41.7905 17.6264L32.145 0.678131H18.7838L34.4441 28.2214C37.2568 33.1586 41.8487 33.1586 44.6615 28.2214L55.1433 9.77475L49.9854 0.678131H36.6302L46.2627 17.6298Z" fill="#717171"></path><path fill-rule="evenodd" clip-rule="evenodd" d="M64.1979 15.2425H66.9381L66.9612 15.1555C68.6514 8.78426 69.3452 6.06374 69.6269 4.37813C69.901 6.05886 70.5595 8.81866 72.1756 15.1544L72.1981 15.2425H74.9977L78.8949 0.678131H76.3454L76.3228 0.766172C74.6289 7.37849 73.9826 10.0565 73.6903 11.7616C73.3501 9.92826 72.6158 6.90379 71.0303 0.765902L71.0077 0.678131H68.3439L68.3216 0.766624C66.6725 7.3141 65.9818 10.1174 65.6867 11.9379C65.3635 10.1639 64.6373 7.22317 62.9903 0.766263L62.9677 0.678131H60.3206L64.1748 15.1556L64.1979 15.2425Z" fill="#717171"></path><path fill-rule="evenodd" clip-rule="evenodd" d="M83.0684 6.42321C84.5773 6.42321 85.7234 7.40332 85.8402 8.77107H80.2428C80.4141 7.40296 81.5821 6.42321 83.0684 6.42321ZM83.2248 15.4443C85.296 15.4443 87.2561 14.2973 88.04 12.5892L86.149 11.6127L86.1089 11.6082L86.0732 11.6833C85.8441 12.1669 85.0049 13.2917 83.2445 13.2917C81.6456 13.2917 80.4291 12.2582 80.2432 10.7622H88.3851L88.3879 10.6474C88.4378 8.60637 87.8921 6.93168 86.8097 5.80448C85.8715 4.82736 84.5777 4.31076 83.0684 4.31076C81.5784 4.31076 80.2209 4.881 79.2457 5.91636C78.2804 6.94126 77.7488 8.35516 77.7488 9.89791C77.7488 13.1636 80.0007 15.4443 83.2248 15.4443Z" fill="#717171"></path><path fill-rule="evenodd" clip-rule="evenodd" d="M93.5357 15.4443C96.2014 15.4443 97.8573 14.1852 97.8573 12.1582C97.8573 9.75498 95.7063 9.1879 93.9784 8.73216C92.7847 8.41738 91.7536 8.1454 91.7536 7.37506C91.7536 6.75516 92.398 6.32218 93.3207 6.32218C94.3286 6.32218 95.0272 6.86307 95.1419 7.73373L95.213 8.17448L95.261 8.16608L97.38 7.76867C97.38 5.7495 95.6219 4.33109 93.3402 4.33109C90.991 4.33109 89.3502 5.64918 89.3502 7.53651C89.3502 9.81674 91.4372 10.3843 93.1144 10.8404C94.3277 11.1705 95.3757 11.4555 95.3757 12.2591C95.3757 12.9583 94.7001 13.3927 93.614 13.3927C92.3074 13.3927 91.4292 12.7756 91.3225 11.7822L91.303 11.6192L89.0577 12.0523C89.0577 14.2626 91.495 15.4443 93.5357 15.4443Z" fill="#717171"></path><path fill-rule="evenodd" clip-rule="evenodd" d="M99.7541 13.2603C99.7541 14.4655 100.505 15.4441 101.749 15.4441C103.292 15.4441 103.745 15.2425 103.745 15.2425V13.212C103.745 13.212 103.283 13.2892 102.719 13.2892C102.356 13.2892 102.1 13.0665 102.1 12.7289V6.58456H103.728L103.706 4.53288H102.1V1.48538L99.7541 2.08217V4.53288H98.5302L98.5231 6.58456H99.7541V13.2603Z" fill="#717171"></path><path fill-rule="evenodd" clip-rule="evenodd" d="M118.142 5.88772V4.53288H116.077V15.2425H118.559L118.538 8.69267C118.57 8.03394 118.788 7.52926 119.185 7.19254C119.706 6.75089 120.518 6.60018 121.597 6.74502L121.726 6.76254L121.748 4.52782L121.646 4.51364C120.159 4.30749 118.814 4.76928 118.142 5.88772Z" fill="#717171"></path><path fill-rule="evenodd" clip-rule="evenodd" d="M128.479 4.31076C126.987 4.31076 125.588 4.91477 124.896 6.06256V4.5329H122.749V15.2425H125.249V9.4941C125.249 7.64694 126.201 6.54421 127.794 6.54421C128.883 6.54421 130.182 7.02803 130.182 9.33273V15.2425H132.683V8.98951C132.683 5.53991 130.511 4.31076 128.479 4.31076Z" fill="#717171"></path><path fill-rule="evenodd" clip-rule="evenodd" d="M70.4506 25.6941C70.4506 28.169 69.2967 29.5319 67.2017 29.5319C65.1193 29.5319 63.9724 28.169 63.9724 25.6941V17.1606H61.4518V25.6334C61.4518 29.5741 63.6013 31.9268 67.2017 31.9268C70.802 31.9268 72.9515 29.5741 72.9515 25.6334V17.1606H70.4506V25.6941Z" fill="#717171"></path><path fill-rule="evenodd" clip-rule="evenodd" d="M80.1729 20.7933C78.6809 20.7933 77.2829 21.3973 76.5908 22.5449V21.0152H74.4426V31.7249H76.9435V25.9766C76.9435 24.1295 77.8948 23.0266 79.4882 23.0266C80.5776 23.0266 81.8764 23.5104 81.8764 25.8151V31.7249H84.3773V25.472C84.3773 22.0224 82.2054 20.7933 80.1729 20.7933Z" fill="#717171"></path><path fill-rule="evenodd" clip-rule="evenodd" d="M85.9269 31.7249H88.4083V21.0152H85.9269V31.7249Z" fill="#717171"></path><path fill-rule="evenodd" clip-rule="evenodd" d="M87.1774 17.0682C86.3666 17.0682 85.7313 17.703 85.7313 18.5134C85.7313 19.2994 86.3801 19.9389 87.1774 19.9389C87.9641 19.9389 88.604 19.2994 88.604 18.5134C88.604 17.7164 87.9641 17.0682 87.1774 17.0682Z" fill="#717171"></path><path fill-rule="evenodd" clip-rule="evenodd" d="M95.1197 29.6128C93.3349 29.6128 91.9883 28.2144 91.9883 26.36C91.9883 24.5057 93.3349 23.1075 95.1197 23.1075C96.9276 23.1075 98.2911 24.5057 98.2911 26.36C98.2911 28.2144 96.9276 29.6128 95.1197 29.6128ZM95.1197 20.7933C93.5766 20.7933 92.1652 21.3564 91.1456 22.3787C90.127 23.4005 89.5662 24.8145 89.5662 26.36C89.5662 29.5856 91.9021 31.9268 95.1197 31.9268C98.3498 31.9268 100.694 29.5856 100.694 26.36C100.694 24.8135 100.132 23.3995 99.1115 22.3787C98.0893 21.3563 96.6725 20.7933 95.1197 20.7933Z" fill="#717171"></path><path fill-rule="evenodd" clip-rule="evenodd" d="M107.582 20.7933C106.091 20.7933 104.693 21.3973 104 22.5449V21.0152H101.852V31.7249H104.353V25.9766C104.353 24.1295 105.304 23.0266 106.898 23.0266C107.987 23.0266 109.286 23.5104 109.286 25.8151V31.7249H111.786V25.472C111.786 22.0224 109.615 20.7933 107.582 20.7933Z" fill="#717171"></path><path fill-rule="evenodd" clip-rule="evenodd" d="M106.861 8.77107C107.033 7.40296 108.201 6.42321 109.687 6.42321C111.195 6.42321 112.342 7.40332 112.458 8.77107H106.861ZM109.687 4.31076C108.197 4.31076 106.839 4.881 105.864 5.91636C104.899 6.94126 104.367 8.35516 104.367 9.89791C104.367 13.1636 106.62 15.4443 109.843 15.4443C111.914 15.4443 113.874 14.2973 114.658 12.5892L112.768 11.6127L112.728 11.6082L112.691 11.6833C112.463 12.1669 111.623 13.2917 109.863 13.2917C108.264 13.2917 107.048 12.2582 106.861 10.7622H115.003L115.007 10.6474C115.057 8.60637 114.511 6.93168 113.428 5.80448C112.49 4.82736 111.196 4.31076 109.687 4.31076Z" fill="#717171"></path></g><defs><clipPath id="clip0_807_2210"><rect width="132.438" height="31.6046" fill="white" transform="translate(0.604919 0.445404)"></rect></clipPath></defs></svg>