<svg xmlns="http://www.w3.org/2000/svg" width="63" height="49" viewBox="0 0 63 49" fill="none"><g clip-path="url(#clip0_807_2099)"><path d="M52.811 1.83835C55.7753 1.83835 58.1749 4.22878 58.1749 7.18167V42.074C58.1749 45.0268 55.7753 47.4173 52.811 47.4173H7.0874C4.12318 47.4173 1.72357 45.0268 1.72357 42.074V7.18167C1.72357 4.22878 3.65939 1.83835 7.0874 1.83835H52.811Z" fill="white"></path><path d="M52.811 48.2609H7.0874C3.65939 48.2609 0.876648 45.4888 0.876648 42.0739V7.1917C0.876648 3.54579 3.43757 1.0047 7.0874 1.0047H52.811C56.239 1.0047 59.0218 3.7768 59.0218 7.1917V42.084C59.0218 45.4888 56.239 48.2609 52.811 48.2609ZM7.0874 2.68202C4.34499 2.68202 2.56041 4.44974 2.56041 7.1917V42.084C2.56041 44.5749 4.58697 46.5937 7.0874 46.5937H52.811C55.3115 46.5937 57.338 44.5749 57.338 42.084V7.1917C57.338 4.70083 55.3115 2.68202 52.811 2.68202H7.0874Z" fill="white"></path><path d="M52.811 1.83832C55.7753 1.83832 58.1749 4.22875 58.1749 7.18164V42.0739C58.1749 45.0268 55.7753 47.4172 52.811 47.4172H7.0874C4.12318 47.4172 1.72357 45.0268 1.72357 42.0739V7.18164C1.72357 4.22875 3.65939 1.83832 7.0874 1.83832H52.811Z" fill="#717171"></path><path d="M52.317 9.17033H13.6309L14.4173 8.57775L22.6445 8.58779L23.7536 7.9952L34.9047 7.98516C40.3996 6.46854 47.4472 5.68512 52.317 9.17033Z" fill="white"></path><path d="M53.3152 10.0843C53.9504 10.8376 54.6158 11.5407 54.9082 12.4346H9.90039C9.98105 12.1835 10.102 12.0127 10.3239 11.842H18.0066L18.5813 11.2494H29.2183C29.4804 10.6769 30.6701 10.0843 30.6701 10.0843H53.3152Z" fill="white"></path><path d="M55.3014 13.3185C55.5636 14.0918 55.8055 14.815 55.8257 15.6888H43.7672C43.0412 14.7849 42.0531 14.3831 40.8937 14.6643C40.2383 14.825 39.7241 15.1565 39.2603 15.6888H8.1864L8.36788 15.0962H16.2321L16.4741 14.5036H26.6977C26.6977 14.5036 26.8388 13.9613 27.4034 13.3185H55.3014Z" fill="white"></path><path d="M38.8066 16.5727C38.615 17.4264 38.484 18.2902 39.1393 18.943H7.94441C7.85367 18.7622 7.83351 18.5714 7.85367 18.3504H16.0002C15.9599 18.1797 15.9498 18.1295 16.0204 17.7578H25.9112C25.9818 17.2757 26.002 16.9644 26.2036 16.5727H38.8066Z" fill="white"></path><path d="M55.8458 16.5727C55.8559 17.3862 55.7551 18.0692 55.5837 18.943H44.3217C44.4527 18.1495 44.3519 17.3159 44.2309 16.5727H55.8458Z" fill="white"></path><path d="M40.5912 19.8268C42.6379 20.7408 44.5031 21.3033 46.57 22.1972H8.97281L8.73083 21.6046H16.9177C16.9177 21.6046 16.8169 21.3636 16.7463 21.012H26.4153C26.2339 20.6404 26.0826 19.8268 26.0826 19.8268H40.5912Z" fill="white"></path><path d="M48.3244 23.0811C49.2721 23.6837 50.4114 24.4671 51.0869 25.4514H11.4632L11.0195 24.8588H19.6501C19.4988 24.6981 19.3274 24.4771 19.1459 24.2662H28.4923C28.1798 23.9247 27.7462 23.4929 27.5244 23.0811H48.3244Z" fill="white"></path><path d="M51.7222 26.3353C52.2868 27.0785 52.6598 27.8318 52.9119 28.7056H36.901C34.8644 28.1733 33.2714 27.3899 31.4465 26.3353H51.7222Z" fill="white"></path><path d="M34.4914 29.5895C34.3704 30.3729 34.3502 31.2568 34.6123 31.9598H3.85097C3.85097 31.9598 3.8308 31.779 3.92155 31.3672H11.7757L11.9471 30.7746H21.9388C21.969 30.2323 22.0497 29.9812 22.2009 29.5895H34.4914Z" fill="white"></path><path d="M53.0732 29.5794C53.2547 30.3227 53.1438 31.1563 53.1135 31.9498H40.0972C40.3391 30.9755 39.8149 30.162 39.0688 29.5794H53.0732Z" fill="white"></path><path d="M35.0963 32.8637C35.7516 33.6572 36.6893 34.0389 37.6975 33.9686C38.5142 33.8782 39.1696 33.4362 39.7644 32.8336L53.053 32.8437C52.8312 33.7175 52.69 34.5109 52.0649 35.214H4.32482C4.26433 35.0232 4.17358 34.8323 4.17358 34.6214H11.9068C11.806 34.3804 11.8866 34.2398 11.8664 34.0288H22.3118C22.1303 33.6572 22.1202 33.2555 22.0799 32.8637H35.0963Z" fill="white"></path><path d="M51.581 36.0979C51.0164 36.9817 50.0283 37.8455 49.1411 38.4682H6.14976L5.50449 37.8756H13.4494C13.3385 37.6647 13.1772 37.4739 13.1167 37.283H24.1771C23.8948 36.8913 23.5822 36.5298 23.4713 36.0979H51.581Z" fill="white"></path><path d="M47.9916 39.3521C44.2914 41.7324 39.8753 41.6722 35.3383 41.7224H10.838L9.66849 41.1298H17.9865L17.2605 40.5372H28.7645L26.6876 39.3521H47.9916Z" fill="white"></path><path d="M60.5644 46.7744H60.7358L61.129 47.4875H61.5525L61.1189 46.7543C61.3407 46.7343 61.5222 46.6238 61.5222 46.3124C61.5222 45.9308 61.2601 45.8002 60.8265 45.8002H60.1914V47.4875H60.5543L60.5644 46.7744ZM60.5644 46.4932V46.0915H60.8165C60.9576 46.0915 61.1391 46.1015 61.1391 46.2823C61.1391 46.4731 61.0484 46.5033 60.877 46.5033H60.5644V46.4932ZM62.4095 46.6439C62.4095 45.6495 61.6634 45.077 60.8366 45.077C59.9998 45.077 59.2537 45.6495 59.2537 46.6439C59.2537 47.6382 59.9998 48.2107 60.8366 48.2107C61.6634 48.2107 62.4095 47.6382 62.4095 46.6439ZM61.9558 46.6439C61.9558 47.367 61.4416 47.8491 60.8366 47.8491C60.2115 47.8491 59.7074 47.367 59.7074 46.6439C59.7074 45.9207 60.2115 45.4386 60.8366 45.4386C61.4315 45.4386 61.9558 45.9207 61.9558 46.6439Z" fill="#717171"></path></g><defs><clipPath id="clip0_807_2099"><rect width="61.7042" height="47.4069" fill="white" transform="translate(0.765747 0.944427)"></rect></clipPath></defs></svg>