<svg xmlns="http://www.w3.org/2000/svg" width="135" height="96" viewBox="0 0 135 96" fill="none"><path d="M39.3558 24.8806H81.189L94.9278 71.1436H80.2056L77.755 63.8856H66.7127L64.2585 71.1436H35.7984L45.398 38.7859H35.186L39.3558 24.8806Z" fill="white"></path><path fill-rule="evenodd" clip-rule="evenodd" d="M39.3558 24.8806H81.189L94.9278 71.1436H80.2056L77.755 63.8856H66.7127L64.2585 71.1436H35.7984L45.398 38.7859H35.186L39.3558 24.8806Z" stroke="white" stroke-width="0.185832" stroke-miterlimit="3.864"></path><path d="M74.0702 25.9484L70.3192 37.7851C70.3903 37.8086 70.1832 37.7851 59.6749 37.7851L49.4467 70.0027H37.5497L47.0403 37.6929H36.903L40.4676 25.9484H74.0702Z" fill="#717171"></path><path fill-rule="evenodd" clip-rule="evenodd" d="M74.0702 25.9484L70.3192 37.7851C70.3903 37.8086 70.1832 37.7851 59.6749 37.7851L49.4467 70.0027H37.5497L47.0403 37.6929H36.903L40.4676 25.9484H74.0702Z" stroke="#717171" stroke-width="0.222998" stroke-miterlimit="3.864"></path><path d="M72.2193 41.8261L69.1185 51.2962H75.3679L72.2428 41.8224L72.2193 41.8261ZM76.0622 25.9507H80.0411L93.1873 69.9572H81.1984L78.8397 62.6243H65.6467L63.2844 70.0494H51.4351L60.9726 39.2725H71.688L76.0622 25.9507Z" fill="#717171"></path><path fill-rule="evenodd" clip-rule="evenodd" d="M72.2193 41.8261L69.1185 51.2962H75.3679L72.2428 41.8224L72.2193 41.8261ZM76.0622 25.9507H80.0411L93.1873 69.9572H81.1984L78.8397 62.6243H65.6467L63.2844 70.0494H51.4351L60.9726 39.2725H71.688L76.0622 25.9507Z" stroke="#717171" stroke-width="0.222998" stroke-miterlimit="3.864"></path><path fill-rule="evenodd" clip-rule="evenodd" d="M96.8778 67.9893V67.1186H97.5794C97.882 67.1186 98.2152 67.1664 98.2152 67.5458C98.2152 68.0471 97.6811 67.9893 97.3371 67.9893H96.8778ZM97.746 68.2251C98.1819 68.2142 98.5223 68.0336 98.5223 67.5521L98.2458 67.0201L97.6469 66.9H96.5779V69.3614H96.8778V68.2251H97.429L98.1305 69.3614H98.4845L97.746 68.2251ZM97.3947 70.0687C96.3266 70.0687 95.4656 69.2052 95.4656 68.1293C95.4656 67.0607 96.3266 66.1972 97.3947 66.1972C98.4575 66.1972 99.3184 67.0607 99.3184 68.1293C99.3184 69.2052 98.4575 70.0687 97.3947 70.0687ZM97.3947 70.3352C98.607 70.3352 99.5841 69.3479 99.5841 68.1293C99.5841 66.9171 98.607 65.9307 97.3947 65.9307C96.1762 65.9307 95.1927 66.9171 95.1927 68.1293C95.1927 69.3479 96.1762 70.3352 97.3947 70.3352Z" fill="black"></path></svg>